<mxfile host="app.diagrams.net" agent="Mozilla/5.0 (Windows NT 10.0; Win64; x64) AppleWebKit/537.36 (KHTML, like Gecko) Chrome/133.0.0.0 Safari/537.36 Edg/133.0.0.0" version="25.0.3">
  <diagram name="第 1 页" id="xUiQj8bzwdNE4Ahc7e3c">
    <mxGraphModel dx="2000" dy="627" grid="1" gridSize="10" guides="1" tooltips="1" connect="1" arrows="1" fold="1" page="1" pageScale="1" pageWidth="827" pageHeight="1169" math="0" shadow="0">
      <root>
        <mxCell id="0" />
        <mxCell id="1" parent="0" />
        <mxCell id="IHmItEdDnRHm8X9nTmPO-13" style="edgeStyle=orthogonalEdgeStyle;rounded=0;orthogonalLoop=1;jettySize=auto;html=1;exitX=1;exitY=0.5;exitDx=0;exitDy=0;entryX=0.5;entryY=0;entryDx=0;entryDy=0;" edge="1" parent="1" source="IHmItEdDnRHm8X9nTmPO-1" target="IHmItEdDnRHm8X9nTmPO-7">
          <mxGeometry relative="1" as="geometry" />
        </mxCell>
        <mxCell id="IHmItEdDnRHm8X9nTmPO-1" value="&lt;font style=&quot;font-size: 10px;&quot;&gt;MedicalVLM&lt;/font&gt;" style="rounded=1;whiteSpace=wrap;html=1;" vertex="1" parent="1">
          <mxGeometry x="180" y="404.62" width="70" height="40" as="geometry" />
        </mxCell>
        <mxCell id="IHmItEdDnRHm8X9nTmPO-2" value="&lt;font style=&quot;font-size: 8px;&quot;&gt;Linear&lt;/font&gt;&lt;div&gt;&lt;font style=&quot;font-size: 9px;&quot;&gt;Transformation&lt;/font&gt;&lt;/div&gt;" style="rounded=0;whiteSpace=wrap;html=1;" vertex="1" parent="1">
          <mxGeometry x="360" y="470" width="80" height="40" as="geometry" />
        </mxCell>
        <mxCell id="IHmItEdDnRHm8X9nTmPO-6" style="edgeStyle=orthogonalEdgeStyle;rounded=0;orthogonalLoop=1;jettySize=auto;html=1;exitX=1;exitY=0.5;exitDx=0;exitDy=0;entryX=0;entryY=0.5;entryDx=0;entryDy=0;" edge="1" parent="1" source="IHmItEdDnRHm8X9nTmPO-5" target="IHmItEdDnRHm8X9nTmPO-1">
          <mxGeometry relative="1" as="geometry" />
        </mxCell>
        <mxCell id="IHmItEdDnRHm8X9nTmPO-5" value="" style="shape=image;imageAspect=0;aspect=fixed;verticalLabelPosition=bottom;verticalAlign=top;image=data:image/jpeg,/9j/4AAQSkZJRgABAQAAAQABAAD/2wBDAAgGBgcGBQgHBwcJCQgKDBQNDAsLDBkSEw8UHRofHh0aHBwgJC4nICIsIxwcKDcpLDAxNDQ0Hyc5PTgyPC4zNDL/2wBDAQgJCQwLDBgNDRgyIRwhMjIyMjIyMjIyMjIyMjIyMjIyMjIyMjIyMjIyMjIyMjIyMjIyMjIyMjIyMjIyMjIyMjL/wAARCAJnAgADASIAAhEBAxEB/8QAHwAAAQUBAQEBAQEAAAAAAAAAAAECAwQFBgcICQoL/8QAtRAAAgEDAwIEAwUFBAQAAAF9AQIDAAQRBRIhMUEGE1FhByJxFDKBkaEII0KxwRVS0fAkM2JyggkKFhcYGRolJicoKSo0NTY3ODk6Q0RFRkdISUpTVFVWV1hZWmNkZWZnaGlqc3R1dnd4eXqDhIWGh4iJipKTlJWWl5iZmqKjpKWmp6ipqrKztLW2t7i5usLDxMXGx8jJytLT1NXW19jZ2uHi4+Tl5ufo6erx8vP09fb3+Pn6/8QAHwEAAwEBAQEBAQEBAQAAAAAAAAECAwQFBgcICQoL/8QAtREAAgECBAQDBAcFBAQAAQJ3AAECAxEEBSExBhJBUQdhcRMiMoEIFEKRobHBCSMzUvAVYnLRChYkNOEl8RcYGRomJygpKjU2Nzg5OkNERUZHSElKU1RVVldYWVpjZGVmZ2hpanN0dXZ3eHl6goOEhYaHiImKkpOUlZaXmJmaoqOkpaanqKmqsrO0tba3uLm6wsPExcbHyMnK0tPU1dbX2Nna4uPk5ebn6Onq8vP09fb3+Pn6/9oADAMBAAIRAxEAPwDwUdKWmB1xS71oAdRTN60u9fegB1FN3r70m8e9AD6KZvHvQXWgB9J16UzcKk81VAA/lQAgRj7UpXHbNIZQe5o80YoAMD0FOBA7UzzBSFxmgCQ7c+lKenAFQ7hQHx0zQA8n2ppbNIXB7Um6gBSfSnxvtOD0NKsDnBPAqeO3AOTkn3oAYV3DB6V0ngiWOHWo4plUxTfIWYfdPY1iCGrunL5cokBwVOfrQB9Kadp0BgidkRsDDAKK0HsLZW4t4x3+6K5TwR4gW7sVhlcM6qOe5HrXahlZAQcgdPpQA1LeEKreTHznI2irkMUDDmGLnj7oqsGG3BwMVNE644YZ9DQBKbaEZIhTn/ZFCwQN1hjJ9dg/wqY9Aw5B7imjn/61ADhbwZyIYz3+6KsRxQdDDH/3yKhRhkDGOanX0FADjbwYyIIv++B/hTlt4B1hi/74H+FIGx/9fmlDYwM0AOMMBU4gi/74FM8iA/8ALCMj/cFPDZyCe1Lx60AMEEGMCCL/AL4FIYIMcwQ/98ClLc46/WjluR+VAAIYP+eEf/fApfJhHSGL/vgf4UnOMYwAaf2z2oAYYYf+eUX/AHwP8KYbeBv+WER99gp5PIJ60Agj2oAhNrBkDyYvrsFO+zwDrDH/AN8CpOByKgmm5Kg49TQBUkiikmwIYsL/ALI5p7adBJBKPKj5GR8o4pI0G70rQXCQnj+E0AfM3xIsh/bjhI1CqT90Y615zcQAHaRg16541ZZbm4nkKgBieleYyRGR2cjqeBQBjtCy8jkVH0PI5rVeLA6VC8KsORQBSDHNSgggZpXtyB8pz7GowGUYIxigCUjjIo3DHIoQ7l5FNbg0AOJFIOaZuBNOBoAdRSZ4oFAC0mKUGlxQAlFLikI4oATilpBS0AJigjg0tIelAFaiiigAooooAKKKKACiiigAooooAKKKKACiiigAooooAKKKKANlYjtX6VMkHHSp4oQ6LyQcCrCWxYAZPtQBV8kBfeliXZIDjitFLP5V5qYWS/5NAGt4cvZdOvImBKoWGD6V7VpF758ag8ZHKmvD7XasflnBI6ZFd94W1R5YURm/eJ8pPrigD0cxY4GCPWoynPWktLkTLtJww/WnMPmIPIoAnt5zHhG5Xp9KuDa3IPB71lF9vep4pdoA7elAF/uakQkDNQI6MODz3qVCQfagCckZ45FIOeaYSepPShRgjkkAdKAJQwzTtw255qEHp1x9afu6gHigAJ9BSh+cVC24Nz0PenhgQMj9KAH5OfalBGSKaSceh96cGxgYoACAev6Up4ppbB9Oe9MaTIIHBoASWQgbR1+lVsZJzn3oYknGO9JkZ5xgDvQA5PvAAE/Wkv7ryraRgeimmhgG5OB7VheIbzy7GRFb5mGM+goA8V8aztLqj2y58tW3E+pNcwkBLHHQV2niGw3qtyBkr8rH196wjbFIScAk9KAMG4hyxAHAqk8JFb72554qrJaknpQBiOhHUVEU4wRWrLb/ADEYqs9ueSBQBQMe08cVE4cHkcVfaMjqKiZKAKOfUU4HH0qZ4lb2PtURiYEADdk4AHUmgABozW3D4N8STxiRNHuwhG4b02Ej1AYgmsy+0+90yfyL+0ntpcZCyoVJHqM9RQBCDQDTaXPFADs0UA5FFACEYNANO6im4oABS0gFLQAwAFVyB0pCmOlKvKj6U76mgCIY9Kdx6Cun8JeGbDX7fWLvUtUl0+00y3Wd3it/NZgzBcBdy9yK1z8NYri/06Sw1xJdEvbOa+bUJrdozBDCdshaPJJIOAMHnNAHA/L3oJHZRXZXPg/SbvSH1bw5rct9a21zFBeR3Nr5MsQkbasgAYhlJ46gg1s33wx0ddT1XR9P8SXM2rafDLK0U+nGOJvLXcR5gYgcdCRigDzIke1C4LDivQLHwX4SuvCr69L4pvo4IZI4J1GmbisrKTgfPyODzVPQfh9Prng7VtejuxG9puNrbMmWuRGA0pHPG1SDwDzxQBxbkbjjGKEjZ+gwPWu58P8AgnSb3wk2v6tq15bJ9tazWK1sTcEkIGycMMDBNW7/AOH62F1rkQ1LzI9O02PUYm8gq0iuQFVlJyjAHkc/rQBwiQKo6ZPvUoiU/wAI/Kup8I+F7XxA2pve301nBp9p9pZobfzmYbguAuR61X13TdJ0+WBNLvr26DKxkN3Zm2K9MbQWO7PP0xQBgiFP7i/lTxAv9xfyqykZPQVOIc9QaAIbe2RwRsUn/dFSy2aBSfLUf8BFWIomXkVOIiwy3PtQBnJZof4F/wC+RVuKxjI5iQn/AHRVqKIbhgZq7HAQRjA5oAqRWmw9OKlWEA5Aya0RCCM0FY0UkkDHUUAQCD5Qx/HFOdflxwDjgU8S78ogxnuad5SorZ5Y0AVBlWyea63wyHS6ZugOGU+tcy8DlQ5GAa6zQlMEERPqMmgDuLS6KsHU4IPStrzVlRXXoeo9DXLJuRtw4B9a07SfYcltwPUCgDURVyc/qamGFHQc81Aro2CuBnsTzUxJxwOO9ADgwDA7uasJKw68iqi4BBz1qdGGOlAF1ZQw6cYpyvkYGDVUDjg4qVCR7UATggY9felJ2jIqMN6/l6UhkB49P0oAeGOB0x64pRk+/wDSo9698knuKQOeoPFAE2c9OTShiOc1GHOPm603fgnmgB7OCc5NRs5OcD9aaz4pm71xn0oAcD1J4HvUE03RegNJLMdvy8ZqH5Dl2Y/hQAstwsEByeT0FctqsxlViTksa2L0CbKrJgdhjpXP3yP5gAIbA6dDQBhXkCywshHDDn2rl7iDbMVPQdMV211bsISzAhiOmK5e6iIc9vagDIa1z9KrNa7cnFa/l4JPYdqhcKynIwT60AYMluGJwKrPbdABW89sDyKhe32jJFAHPT24yeKpvbkdua6Ca3LZqo8HYjigDBePbknp61r3F23haCKG0AXWZ4llmuCMtaowysaf3WKkFm6jIAxg5hu7cCF3xkBSSKi8bgjxtrB52tcsyZ/uE5X8NpFAGbHbXepJe3pZpPs6CaeSR8nDOqjk9SSw/Wrul+IZraEWF8GvdKY4ktZGzt/2oyfuOOxHXocjirumQSx/D/V5o0d2u723tgFUn5VDu2cdOdlcwysjFWBDA4IIwQaANPWtN/snUmgSXzoHRZYJgMeZEwDKcdjg4I7EEdqoBvWug16MHTfDqNkSjTAXz1wZpSv/AI6V/CufZCnUH60AKPanA1EGp4fFAD6KQHPSj6igBaKQnBoBBoAiVuAKcGJNJHEXAJOBVhI1UcCgDq/BHir/AIRWw8QvHM0V/d2iR2jeSJF3hwTkMCMbc9RVnRvHd5N4gubnxTdXF9Z32nyabOY1UNFE+DmNRhRtYA4GM81xpWgUAdyuqeGvDOgXWlaLqF1qkup3Nu91cy2pgWGGJ94VVJJZiep6cVv6j8TU17UfEmk6nqF6fDuohvscqKRJbMACuQuCyE8Mpz/OvKgKeAT0oA6C11W0g+HepaIxb7bcajDcIAp2lFUqct2OSOK6/TfiLo2hSeHbC00iG8sdOg8ua6mDrLul/wCPgqoIUgg4G4HOK8z2EdTTkgZzgKzH2oA9I0LxRoumeGL3RbLxNqujf8TaS5guLW0Z2lgKhVVhuGDxkjPap5fF/hvU9U1hLq6vIYL3R4tPfUDaBpbmZWDNKyKcAkADr2FefQaTcyDd5L4HtUx0i5B/1Z49RQB2HhjV/Dnhi+1RLHxFqKx31h5KXyWBSSGXeDwu454HXI61jeK7u31K4tZo/Emo65IFZWe+gMRiXIIC5Zsgkn0xj3rHOn3EZG6FgPXFOWLacMCD70ARxxYNWEiJp6Io6kCp02Y4yT9KAESIjt+NTpCD705WA6ce5qQNjBGaABI1Q8jirAKKAeT9KjGHHQ07AyeuKAAyOeRwKAjsQc9TmgbQwHOPQVMgIOD0NAEax7Dwua0bK181i7cKozmmwWjzOoRSSxxj1rpLbTkhh+cblUZwP4jQBhS27zMAq7Q3JJ6Kv+NdPaQpFaRqq7mwOcVRS2eeYtJ8pzkKO/tW9bKiQqgXLKMUAWYo3kCkg5xV2OJozwPrk1WF0I1wWA46AU03aEdGNAGooIA5GParUDkkgk8CsNLnBOcY9KvWtwGJIbBxQBplsE47elPjdQTzzUCyq3Xr6inE4Pse9AF1XDDIP61Kj444/OqETlSBkke9WFcgdCQKALJY9u/bNMZiDweOtR7ge+Pemk+jc4oAlDcDP480oYFgCPxqt5u3r/Lmpkfd0B9aALBb5Rg9utRucZ96Yz4GBx7etMLlhg8cUAK0uehH41GWbBJNNHy9+cVXnuFQ4GCR+VAE43OeearzscYxhenPeqUt5K4ODhR6cVUed2OSTgdKALuw9Tyep5rLuY90xLAkA8Yp8l4I1yc+pNVlvI3bh8E85zQASxvtAPzIex7ViX+nJISYm2k9jXRpKG4fBH94UyezW5iJj4cfd9/agDhZrR4wVZSD3qpLbkjpyO9dVcQ5UxzAgg43Y5WsiaBoXKtgjsR0IoAxvLccjoKYwDDawwfatJ1AYkcE1UlUM3TBHcUAZ8kGM45/CqzwA9sGr7qynrkVA7cgHvQBmSW4wQR+lVr6wTW4LeJ5ooNTt4xDC8zBUuYxwqsx4V1GAC2AwA5BHOq4GMZ49DVaWFWBGOO4POaAMmz/AOE48Oo9nYf23Yxs290txIqscY3fLweAOaRfD9yty2peJ3mt0kcyNFKf9JumJyQqn5hknlmAAznk8VfVrm2Qpb3NzDGeNkU7Kv5AgVnvDhmY5JY/MTyT9TQBW1O7l1K/lvJkVC+1VRPuxooCqq+yqAB9KpFPWrzx45HIqBl9qAKL24PK8GoGV06j8a0ym48Uxl6g80AZ4c+tODYqy0CH+EVGYFHTIoAZu3CkpxiI6GoiGQ8jFAE8I/dip0FQ24zEPxrU0yya9ugmDtxlj6UAUiOaQLXXXGhaXZyKJWmlYrllVsKD9aWK806ywbbSrbcOjSgyN+pxQBgWGk3uouFtrWWX3VePzroYPA15FI322aOFQAeDkkVYPibUXUKkuxScbY1Cj9KZLNqWpXtlZ2KSXWp3J2RwdSf9o+gHPJ9KALI0DSoAoMwcgfxGnRw2kT7IVQD2xXU6z8F9W0Xw5Fqum3j3+sxqXvrb+CYdcR98r2z17Y6Vw2nXf2lRJGec4ZW+8p7gjsaANyJEXJw2eueuKV79YDgDIPTgVAiyNk7W59KkFtKSDtI98cUAW4NUkyMxKQfVc8VZNzFMCJLWFh/uCqSWzoQCOfcdatojALmMEdu1ACNpVhcLkRxxsfQcVXPh9FzmNcDncox+laIQ5zzz2HFWoZNnyhiR6NQBzs2iRKmUdlJ6AjI/GqjafLHkFdw7EV2M0IuFzGwVh6D+dZ7xSRttlx7YHWgDmhGV4xg07YSD15roJLeM8lAc9MUtvpK3DgIjHP8AdNAGBHAS2SK1rHSprjkISPfj8SfSuht9DsbIh5laWTqFLZA/KrwfcgG1Y4x0Ve9AFSy01bZM5DORgsRgAeg9qtOEC7VyAOSx70wu8pPGFFZ9/qyWrCKEb5OmcZA+lAF4qqDczCNffqapXHiCO2byoU3HuzHisaW9llYmSQgnkgHJqBGgDFigYn+8c0AbA1K4myxc89lGKnglmkOC7ZrOiuEVPkRRjtipv7SNvHuJALHAAFAG4jMi8uc+9WbadkbJcYIzXMx6i7MXPI6EGti0vIpSoOVY8Y7GgDfivQcfOK0oJd4xwRXL7GViycj0rRsLhiwzwRQBvKCGFTKxx1qvFKGAxUwcZJOKAJS5DD0o3DPBH41XLEY4pQ2c9fWgBXJBJx260qSHPXFNZhn6Cmo2MfXmgCyCfwoLFjweaYvzNx+tNnnS3Q5+9jFAEdxOsalcjPfFY1ze7QTt4z69aivr8swVT0rLnvHYcEBhQBO+oyyMVGFX2FRPezIOWBx2xWY126sSW/D0qvd3o2bSMnGSQcYoAt3OuhVYSRqy9PlNQRX1tPho32lhja1c7drvTerMv45FURcvbsrEZUfeIPFAHercuhyCcY/OtK0vQ4XnDVxFvfOgUo25W5KnpWxbXqOP3Z2yDkqTz+HrQB1k8VveqfNBSUcbgM5+orHu9JZQUZlKHlWHY+tT2N+s6hC22RenvV5ZgwKkZPUqe/uKAORl0t0YhmH19aqy6XnkOB611txbJMp28Htn+VY8yFGKEYYdQaAMM6YOhckVDLpCMOrfSthlXFRtsVTyTnrkUAYEmlxJwQ/HvUDadFniWQD6ZrXlbBOAcfWqrgspxjNAGcdNhfgXXP8AucimNoSPyLuNvYqR/WtEaTPMNwjCr/ebinDStp/ezsfoMUAYE3h91J2SKT9OKzp9HmVSw2tjqOa7Qw20CjBaQd9xJpYr63Vi3kqoHG4CgDz97C5iGfJYk9wM8VVeNlOCpB9xXpcssTMWBUhhgAjGPeqNxZ2FyQHhUlu/Q0AefFPamlQa7C58Kq4LWsvP91uaxLnR722J8y3LKP4lGRQBjlKYVqzIm1iByKiZeM0AMtFzCD7mug0adE3Qs6xFjuVm4BYDgZrDsF3W/wCJq4E5GKAOyk05bu2Tyru2ZjyczBT+tRDQE25nvIcrxiIhj/OsCBSyAEEgUr27qwYMwB96AN17c28TLZwKHwcSP8zZq14U8Xal4At7zUToNneX0x/fXss537cjCqAMKv06/gMc0BMOkj/99GoNSNx/Zs+6RipUZBPuKAPqfxt4vm8K+B38QQ2aXEo8rbC7kDLsByQO2a+e9Sv7vXvFS6zFpNppjTZ+1xwSMyzH+9tI4b3HXr659i+L/wDyRp/TNr/6GteY2kMb42EEH3oAsJJtiGF/TFMN068ADHvVwwARjjnHWq7wkEnjigBU1B1IV0Ur+tWobmGUgAhT2B71mlOenPtVmLT3Kh5FIHZe9AGgV2gckEnOQaA27jgY9aSKNwoEbZA7NVmKLzmICkMOCKAGxyyRnJAwKtgJeKFKAn6U5NPKLvlYKvX5jUy3EUH+qXJHUjigCumnGIkzMNnbAyT+FWRcR28eyMCMexyxo+0G4JVjjcOgqhLZSF8qxI757UAXFmMzEDiMcs3epNgk6fKqj8AKihjwqxr90dTUGoXy28Yhj5Y9/wCtAEOpanFBGyIcKvJx/Ea5eS7MhLjqffmlv3aU7ccM3Jz2rPku0iJWBdzAcseg+lAFoucEyEIo4JJpyXVsFGXJIPVRWBJPK7EvuYnsTxViKOZkGdoU9OeRQBuf2lbRIWCsfcmqQ1bzHJZDj+HnpWddKy7ULqB944pIokY48056nA6UAb8WoKcAqRk81pW95GWBV/mB6GufSByA0cit3weD0qRBKv3o2H4UAdvb3oLLhhz71rWk3znjBI7VwVrdMjLk5CnGDXXaZOZ2GDlQKAOlt52ACnr1NW/M4+tUI8FQRwRVhWGPegCyJAMZHSnh1OMVVznnNBfGAKAJ3cE0qPz2FVypJBz1pHfYAB1NAF8SqkRYnGK5zUtR3O3zYA96NRv2RSoPODxmucld3bcxNAEst6rSYAJPc1Tlu9pBKnr60mx3+YAkfSqd1IyLgqR65FABc30YByCD61Te6jmAIkXpjBOKo6lNtQNng559ayzOrR5PAPP40AaVyXQ7cEKVqg9wUcKRnj5hWe95LG2EdhxnGePypU1BHbFwmP8AaQfzFAHSWO2SDahAZRwuaeX2tkEq6kHOcHNU7LbA8bhw0bKOV/r6Vdl2TDcwKt2YUAadlemVlVjtm6hhxu/+vXQwXokVVkJWRT96uJXKMMsMjkMO9bVpeLMAjNiUdD/eH+NAHT+a2Nx5PemTRRXa5+7IBzVSxuBMhjY4I4FPfdG+R27UAZd7aTW5LEEqO4rOeVueeoro2udgwyBojzg9qjOjQ3mJY/lHXaeD+NAHOxWsty3C4HQsa04rSC1A+Xe/qa0vsbQDaUCr29KqyKnOAT/KgClO7sfvcdgOlUnhZvmLfnWkUMjZK4A6YFII1OSefbNAGU9s7YC84qtLZN1Ab34roP3EYzI6qOw71G17ag4Acj1C0Ac3JAzBgSVPbPNU5fNQgBtwz39PauoMlnOp4ZW9xWbdQIfmUggdO5oAyorgocB8e2au/wBqvHgEBwRwR3qm9sXVmVApXn2xTIFPmjzEDDsCaALdzb6RqKqJrcxStyZEGD+XQ1z1/wCG2XL2lzFKmTgOdrf4VtT2jMGmtiXXoIyPmH09ayp5njygLKCelAHPaWm61JHZjn9K2rDTZL1yFZFA/ic4FZWhoZYjGoyWfH6CutREhjVI+Qv+c0APtNCBba15Hg+iEj86ty6CWiZkuImIGcYIzVeK52YPcccVq2915kZwAM0AY6aYV5dwAP7ozTbjSI7y1eAysocYzt5FaTkqzAg9elOjBJBFAGbqY8Q3+mrp+o+INRurBSv7l33KcdM/THerlhFIhBDbV9D3rVgXccnn+tTPYKRvRRnrtH9KALEUiPCBgZHUU4Ijryi81WRShG3gAc1pxQh1Dk4Vu9AES28ceGjiUMeQduT9c1KYXYFiQo7sx4q0GUqEQDcowCarlHdtjkg+mc0AWNPggaUBR5gX7zEfKPzpNW1KKzlC2qL5hXlscCnSN9ntzFGAqKMu3TJ9652eQzyccgd6AL6X7T/69iT69qsgjG4NnislEAFTxO6OADlfQ0AaUTYYHHPatKIdABk5/WqUAV1DgZJ6Crx/0eLH8RGB7UAQ3SqsZWLAbqx/pXJX8jR75Lg7cngetdDd3KwQs7tjPQetYU7LdDM4BXsDQBzl3PJdqABtiGT9aroUjGACc8H1rUurJWK+SwXr8p6VmzwXEGUdDlucigCu6rnIGRnv2qeI4UgnPfpVcuiKRIwBPTNILpUYMFPXAHrQBFdFlmZc55pYpGBwvU1Bd3Lb2cKBk557VWiunVwTge9AHQ2cxLHeDntWlFcsq5wRnpXLwaiUkAK5Gcda17a8R4yqsCy9j9eaAN2IRyqAdufWui0VDCxGc7sY/CuQtnclQehHQV0mnSNCFYk/KaAOyt+ox6U8NhyT0qC0kDIrZ4PTFWXAyF7GgB4kGRk0NIikZ61CNoHWonkXdg0AW0kDH6VVu7gqrYHJ4FILgAHGPes6/uHZigOD1oAjkCkBnyxJxULhApIABHtVYzMhGTx7057hAhJYAn1oAilYqNu7rWVeXBVGByPxqa5vEB+/WVf3sTqAXOe4PegDJvZ0m+R0B5yO1VJ7eIRLh2U4wB1FSSbXkJDKxyeAarXO4htwOAcj2oAy5UdW9e3FNVgoyckjjBq1Lk268DO8nd7elVhiRwpGOe3agC9BcvDdq8bYOQD6H2IrphNHcqPLwsg+8g6H3FcmkZScKQWGc7hWuXKsHBK7fusDQBoBudpwVPXNNMjxMCD/ALrD2qBJ/P8AlyFlHbHDVKi78xkMx9B60Ab1nqHmgSA4ZeGA/nXSRv8AarcOvzMOGA/nXHWmn3EM6SEhV7jruHpXY6W0VvhF5VhwTQA5LMEHzD3yB708y+S3GQRVibIY4/Cqkyg/MetAFgXSXACSqDnjNQtpZfPkkkAZ2ngn/GoBlMkjFXLa9SRGtwxDN0b0NAFCdUtgUYEMP4RWfI0k5KqyoPrzVuaeVSUnTeFOMnr+dIkSMuYyD32nrQBiSW7xSESDJJ4JPWnLESMHOK3TbJIv71Ny+h7fjVae3t7UFgXHoGbNAGW9uNpzhRjrWdc3FrbkjcWPQhatXTtcEhHKrWVLaFWIYHIoAhbVijAx2w46FjUTatI6kG1iweTjvUxt07jmmtaKOnSgBn9sBWDNaLu9Vantq+l3eFu9Pk3f89I3G78fWoHtRjpVSW29BQBk+GE/0eeT+JWwv4iuhPy5UH3rA8Lti1uBj+MH9K3wpYA+1ACxoxJyeO9X7ZthVQSeeT0quilVzjJIqWIHuBz1oA05UygfPsajUYfBxk4p8Z3qMntSIu9hgdPagC7ARx1x3rTgOSOcVmRL6frV6F8HpzQBI8KrLuxhW/Q1I7/Io7LwMdqH+aEkZBHzZqIHOQAPWgCSJmLZA5FadswWNpZMFUGef0FZkYORirF7Jss2RTwxzQBn6hevdv5YwsSn7o4BNVkQKemKciDGe9PVe9AC4G3mpIE8xxxx3phGcKBV62h2ooH3m/QUAWrZRu8w8IgqGW+UszyHaM9annYRxCIcf3sVz97KJHxn92v3R6n1oAm1BzLhyfl6qvp9ayJHdjgDPfFSTyyuqhORz17VSOoxlzFEfnHDMf6UAOnnSJRvfBIzgck1Ue/LsVA2rjjPJqC5V1l55OTg/wBaY8fyZx7mgBktrBPy2AT/ABVXfTXYARy7ueBSmQoee/tTkaQkMuSPXpigCpc2VwqsDGzHhgR6VnPGyDlWU+4xXVi4YMCzBlxyDzUDvE2Vk2nPfbQBzan99+NaVujeaQOnetUrbBg4hjY+uauowVlKwqox2HWgCrYTzQPgqWXGMEcj8a7CyBeBWAzmubSTJOAAWbpiut01W+yoSMjHb1oA2LQshRQSAOoq8ZiW4PAFZ1sCuDnJGalDkMee1AFgykgnPFR7gWJPSoi25TjpTFbnHrQBYO0IG7A5IHes+9ZQwk28gc+1aA5TBHGM1mSq8spQjA70AYd9dyCZUU7VAx65qNdwHzPkdafd25M2Bk7fanRQO5OFIC85PFAGbfKUQEYycEZrGuYJpI8hN5XOdvJx+FdBeQSOR93I9HrGnEkLNhWyc8gdPbigDGkgZSxIZT6nIqu80igLu3Ajo3NbnnO0RIdgOrbu3NNEkLMFaNW25y2BQBiSzp5Kxuu1s5yvIpIrdmYOMMD0YdzWsUtJJjvjVQO+BUsE0EJAhhXAJ9OaAK9jaSMWIjJbPccYq9/Y88jAhQqY6E8itm2uY3jbaqo23p7+1RPdsjEbizYFAFGLSUiYNI7MQcgA45rbgERTMaBXA+YDqfes52MhLKdo6nPelglZXDgnK85oA2HfegTOD2x2p9lOyS+Wxxk5GexqvEyygODjsR6GpX2Ku/JBH54oA6hG8+EMRhiP1qvKyop7nriqunagLiHCnkHaxPrUsy4bf69frQBnzTvKxH3RmoFZ4ZVdDyCDxU0q7ZGGPpUMrBVz79qANK8RbiFLyMZDj5vVT3qpEjLtfJ+gqzYTMsJQnAJyAamnkIHy8DHSgB8Tq2BMoUnp61i6yGknKj7o4/GppLhvMOTjtTcfaBg/XNAFCK3CrvdRjsCOvvQLWS5LYAK98jAFWxC0spXOAPvH0FXMKse1BgCgDFOlxRHLsWI7DgVE8CD7iIPqua0p+T1zVR0+bgexoAqi3hkysiKvuowRTH0m3YEgsB25z/SrToF5Bye/tUJdlIJORnFAHnPhk/urhf8AaU/oa6mAZ25GfeuW8LkYuh6bT/OuoiboMnOaALo2setKoGc1GgLOq7sZHrUxOScHigCeJwpxjI+tTxMFk+pzVaPhhk8e1WgvIYcCgC2Dg/WrMWMelVkYMnB46Cp4Bkg5z7UAWxgoe42moQ2BUxGIzz17U1IiV6EA9SaAHRN+ANF425FGPenouAAB0ps6FlGO1AFQAdB2qQKeppEXDAVKcDOO9ADYoy7gZ4NakKBQWx0H6dqrWiZZmI4Aq642w5Jxn5ifagDOvJdsJJPLZNYMreY2B64zWjduZ3GDgHp7Vk384iUxR8sfvGgDO1G/wPs0ZwCCGb1rLdCigjDHqakuonMiEL26VJGoC7s7mI5z2oAqPLOMcFlxwW9PrVlLhHysuVyOoFRXQ2EHORjiqwmO7APGOOKANELC65RlJHrzTJYn2cE5xWcTjLglfrxQl8ysAXLDGMYoAtujtHwTkVIkJeFULZbt2xSW+rqCFliBX1B5qzFeW8rjY6qQejDHFAEaQM7ZIU84IxxWjENpCjPvTRGxIeN1Knrg1I5aBR8vGQM4yaAHqiNIvTg/Q11un4NqEj7dq5WLJYN2PrXUaSMxnGeD0oA1YwAvAwRSbfmOBye1SKc7uMrSbvlUmgBgUhSMYGeaVFAYE49cUO53AClCknigC1ECee1QvEPMZsDFTwZC/pSTofJkxwSDzQBy17KGnIUcZzURZo8MTkH19KneykeQsX2ntxUdxbuke0fNjkUAZN6zABgc8k4FUZWZ2Vh97pmny3IR2VlIXuO4quJ4yTl+ByD/APXoAcUd1ZXVTkYGe1Qx2SPIwGQQvY96nBdsuGypHGDSWY2zli3egDJntyqs5JyDgL0yPWo7RirEgE7Tzmrbo7zHGGI4HPWrtnYr5J8zCgng9KAGiRvJOT1qeCcSNscc9A2O/vVe7ltrRgCWcr0IHAqlLq8nl7I1VdxzuIyaAN8wsrHzBtA70x7iGNflYHHJwM1kQag9wRFPIx44JPWpG3ICBgA9BQBYg1Qxy5QYUnDZ5JFaYdnYMX3A8hs9awDHgBwMAnkelaOnSknyX+q5/lQBu6e4t5cg4jc4Psa6BhvQ+p/nXPQBShUnr/OtuylMltg/eQ7TzQBVuVJZW9qrkYxwCavXadCDwRmqgG7g0AS2+ODUjthSoPPpTYxjGB05pJOrbu3UUAVD87HP51NGoRQR1PHXpUJ6n0qVSu4DPfGKAJVXYDyOTmmOxxjPSnucjI4quxycc0AV5DuINRFgOnJPU1NNg56+lQbRyaAI2PU9MVBJh8dvpUzrgkdR1/Cojwc9R70Aea+F2w9yPZT/ADrqI2IwRnHUVyfhxys069mVf511URBC56Z/SgC+jbVBPU8fhT0cHoOO1VpTgLjPHFWLaJ2PI496ALUS7ueoFWF6YNAQRptJUn0HJoAZRgrk+5oAngcIxU/dP6VegUZGGDDPrWbHlsA9T7VL5hjO0H5vbtQBrnYGALKAOoHNOadGXaiEL6+tZSO4GSSx96sQXCqdsnTuaALoYqM4qQMHU8VE/wB0Y+YMMginQdgaAIiuGOBSqMsOKmkjweOlESZYD1PWgC5EgSFR3bmodVnEMIjB+ZuuPSrsShpOeAvFY2oP5lxI7HCL60AZk8whgB6segrGffIx4Oe5NWZHa5mYZ4PT2FRviIBecnqfWgCnOoWBlGCRycnmqIYoBxj0NXGVmdskY7k9Me9ZstwVZo4xnH8RH8hQAtxMiK2/AU4GDyx/Cs2WVlOY1wP7x5NE+52Ls3zNUQYquMZHtQApcuuSxZu+afs6ZxngjFJtDMFB254pHba2zGCODQBbKbHJGCuM0SxMgVyOG7imQMccKSenPTFX4lFwQmPkPU+lAEUchjtiocqc544zTjqVygCFywHXcM1DcoqXCogYqPX1pCCGbK5zkZNAGxY6oHQ+ZFg9PlP9K7TQrpZU3AY5x6V51aK7YUEKM5Oegrs9FVI4V+cMA3OKAOvY4XAIx3pqAsR1wKakylfUEdaVJCFJFAAchu3FTphj71UALOAc/WrqIBigCdcKoolI8s4FGeBSS42ECgDNZAG5oaFHU+uKkdQfqKZ8wzigDndW0sSIXVQWHOcc1zCxoVkRjhh0zXeyswU8fUVxersVvWUjbu5yO1AGezJAcl3OTkBT1qYagIbZpXiDAdCTgjNY14r7hgHnkEVIsck1rHbBGYs3UUASC/eeYeS27nkYxV6N3c/O5Mi8jPQGsWKI20khZSrKSBkd60rG4cod43K3fofzoAiuFcykyHIPHrmq7o+MxjvypHb2rQ2owLbiwHIz2NV2kGVAX5fWgCHOFBXAI6kdavW0r3XyN95f1qnMgKEqMMe2ajtpnt2V1Pzjp7UAbsaKrESAEdGUU11aNxgnA5U0kDi4j8xR8w6r6GrCsJEKkZOeMjpQBs2cglt0kxz/ABexrWsHxKB2YbT9e1c7ZSmGcIeFbAI9K3bYhXGT34oAvzLujIA5WqiREMPStB1zIc9GFQMu0+4oAYAByOT25pjoWJx0p5GOTUUs4XgcnHPtQBFLFgAjucVChxPgj1pBdFGKyEMjeg5H0p2UZldHDDuAeRQBI5+WoDxlj0HNSsGYkYOKrzsB8inpQA1wGJOQKif5V6dKUM27A7fzpX+7xgn2oArn5vw5+tM+UKAc8+lDsA3BpvIII+7QB5ZoBxcS56bR/Outg5AGeDXKeHVL3sijpsyfzFdzYWaKhluGEcS9WbigC1FZ71DFTtBznoBRLf2tm2DlnHRQeaqajrbToYbIGOLGN3dqxUBLZY5buTQBtHVppW/d4iU/3ev51JFNIzAl2P1Y1mp0B4q3FIQRjk0Aa8U0m3AcnjjNWY128nk+lUYJBtGOG96sq7E8/rQBZ3elGaYhxgnvTxyeO9AF2xnHMLcg/dJ7H0q+FAPpWTGvQjjFbER82IN/EOG+tADs7hz0p8CYP0po4OOtWoU70ASD5ImbviuX1WfgQLyzHLV0ty4jtWc9NpNchKxZy7febn6CgCsNsTDPU8MRSSoNu9uAOvrSsFYZPBHbPWqk9356sisBt/WgChe3BlUInEY6Adz71mTZdd+ORweKnnfy2JJy2elRkuYmYNtz2PWgDOZwykE9DxTQj9R096lKplsDOPzFRFz0FAE38Q8xsnrketSOoPzhRnHaoCSzZAye9PIkQg46jHNAEscqhgoJzzmrME5ifZDnI/i9ayi+1shhn0FWre+jSQBs8jBPSgDSJZ9rkAnNMmRywJXIzk05Lq2RvkcY7A96sRskmck7SPXoaAIIJgsxAXAPy9K6zRjmAEj5d3H5Vyto4WYqcMM9e4rs9GQrbfMODwtAGqspXCdsdatA7UxiqsqbWAyKvKgZFPt2oAdE+cZxmrwHAx6VRiGGBwetXkxjFADx0+lNfJU5qVVwKY4+XmgCoVPaomUg9KsEjpmozg96AKTrkc1w3ixEW7Ug4bHQd67+QKqliRgV5x4qnBvd4HfAyMigDHWOSVlKNtxwQa1kvFs9rGIblUkjt9c1nWjnaJD26D1qR5i8siqdwK425oAoz3hurkyNgDGcelPhldwXUHjj6VEYFhjLSH5mOcAfzpI5HWI4wVJ6igCXzyG3b9pHUdmqwkqSxcfK3Xbn+VUo0DMTkEEdz3qrLMxkUKcbemKANX5cZ59h6VG8ZYBgcN1I/vUW9wl1hWIWQDHT71SBeQpBwPXtQA6xu/s8pODtPDD2rbjA3KVYMrdCKxTCdrP0b+Yq1pc5aQxOSFHzIfQ0AbMihiHHDDrW9YuJYkfvjBPvWJb/ADcEc5rX075XZOxGVoA3QC8cb+2KZKACcfWnxPm246g5qneyfIFGcsMGgCtc3QAKx8+pqk0jsAc9u1SMp9OKiKhRzQBBIC3U1EGeNiUJU1O3eon9aALMc7yoQWOR19ajZstyarBzGwYHkUr3Eeec/TFAEgYBieopXkwpI+uagF1DuwQyr781d8hZYvMhdXXHb+VAFKQjgjn2pgI2n0NPKbiVYhSOmelV5GKqEQ/MTyaAPPfCDRJqszztiNYGJ9/mWtXUdUkv5toOy3U/Ko4z9a5jSsm7IBPKHP6VsYxQBowcxD2NHRz2OabbMPLIqVh8xPagCZW4BwanjbAqAMAFx6VOjDjgUAWYnJHXH1rRtp34B5FZsR3HAxVyM7cAc0AaCOr9Rj6VOqccEVSjY9DxVuPnBFAFuJeRV22ba+MfK3H41TiJPbNWl9RxQBdHqKtxrtCj25qtEd4U8e9W4yfMz1oAram2IdnbHI9a5OZssT+ldNqbbmYelcnfzrEpHG7JC/40AUL+4wDGrAH+Ig9PasszkOFGc+3SnyuGyAuSeearsyqoVc5PU0APmX5twxuPc9qqXIKqAWP0qUShjsIOByCaqXTqg2Ft1ADQ5c42kAelQ3LIjAo25T2XtUMkrMu0HC+gqNWxx1oAf9okGNh2g+lBkdj8znp3qMld3I7047S3BIHvQAOxB6+9PADKCAM1ESB9KUMw4Xk0APDMjDIOM9a3YLhZ7XjAI4IrIi2tt38VbgXypcDlDzmgB8DFZ1AY5LdvrXqWnxH7NFz91BlRXlSMY7sP8uCcivSdLuzJhi2QwA4oA1JxghQQTmrULEAJ7YrMmZxdKpzt9a0I5SoxxgUAXEXHWrKglgQahikDKOORT0YlgM8UAXQBt5qGU/LUgPFRy8rQBVYc004A5p7VFJ9w464oAoajIRbuw7A5ryjWp5GuXIcgbvWvT75t0LKcknjArznWrTE8m1cBTkjPegCKzuFa1VJEwT/EtMRoUcuj7sA5x1HPpWe02xdoPIGaqrI4dmBIOOtAF6R2cBm79BmnwfKgAYZOc57VRSTeeTjHcVoQFHjBBG4/KfegCvdSruKw/dHUVUDcEg1M8Lo5XnIOKDCHUYwG7j1oAEOApGQc8EGte3uBcQgMQJV6f7QrI4Qbe/aprcOjh1zkHNAG0GJI3ZCgYwKERslwCoB4OOhp8Ti7TcoAbowHarccJC7cjGMGgDSs38yMP3HDfWtSJ9m1gcbTn8KxLNTBIFyNjGtNGYO2T8oNAHRwPtRj2yMVTn4Xk9Gp0D74A4PBUYplyPlJHsaAK24EVG+CD70m4g4ppbFAEEny89u9QO4OMVZlG76GqjqDnHWgCF2JPJqMvjilk9arO+TxQBITSw3M1tLvhbHqvZvrUO/tmlzx14oA2vMivoTJCNsi/fj7j6VUWLPzMMkZrIW5kguhLC+1l/I+1dHBJDqVo08HEqjDx+hoA8b0j/j+H+6a2yKw9KOL5f8AdP8AKtwtkUAT2z4O2rDNwPyqhC22SrW7g/XNAFgOOO9TKSTxVMN0qzG3Q0AX4jhfercT57VRiIwM1aRsDigC9G+auQckelUImHatG1wxFAGjEvTiphiokI29qlXrxQBctjsU56McVcBCgk5xVHoij2zViV9sYGe2aAM+/fljmuL1NnluMr0PAH0rrNUciIAdWFcvejYrAAFuuaAMqQKqkHj196qO3HGR6n0q1ndkEgDux7VmXc4Zti8KDyO59zQAktwC22Ns/wC1VKVmL5BBFPYqrfKc5qBmG5gQc5oACmecjmoyCD2p4Qj5gcj2pCpABoAaAWYEZpSM5yfwp8TAN83Q0jrlyR92gBo5YAdPepo0BY44oWNmUhR3p6I8ZORyRQApBKqwHA4Y1rRRq8OOclRg9qowIxiLFcg8c1qQRlLVTg8dDQBTaFi8eSMqTnHeuy012j8oqMAAZNYEFslxLGobkHI9a6W2tXW3CEbXY5+g9KANeSQNdIRwCKtq2ByMnPSqiRKsygnJAGMVbI+XqQQMZxQBdtnXO0kfSp0I3HFZlspVx82Sea0ol+Yg9aALqk7R6ihx8tEYJUU6QfKRQBWPvUMnOR3qY5x1qF1GaAMu7ATORlq878RusUpX+Iklq9PeJJC27B2nPNeZ+MbZ/wC05Xj+aM8kY7igDm4EMzMQoOeBmoWj8k7D1oibaQQSozk0t27sQ7HJIoAgLqCRnikE7712kjnpUOcmnR/6xfqKANDzXnc4Jz3pi53bRyaiyUlYKSME4NWIsOy5IB/nQAjJvwQDnpmrkbtbRhDjzCvOR0pylSAoyCOSKXekhyyklRwaALtgTFKJVChSea2cr95CSpGc/wBKwInJJUEgdTitWyuFIMTEjPQUAXGc7OOp6E1Itx58QAOdhw3uaqSylGIA5HAotPknx2k4/GgDsdMO/TR/snFOuD8n4YpmkArYMp/vdKdc8Rke9AFA9+lRFuSOKeTmmMMgmgCNmqs74JPepJH2hvXFU2OeetACS/MM96rHHOakd+oFRM2c5oAaQN39aZK5VcZ5PFPJGP8ACq0jl5PYcCgBm0qvWp9NvpLC7WVclTw6+oqHdlsA0DGeRQBwOm/8fqfQ/wAq2zwaw9POL6L8f5Gtl3A4FADwwDAirQbPftWbvqxHJlR9KALobirETetUVk4qzE4NAGgje9WkbpVGMng1ZRskCgC/EcjitSyBzk1jwtllrcththBIwSM0AX1YnpU8fJHrVON/zq5C2WAHrQBZPzSAZ4p077jjPtTEbLMfwqOZ8bj6ZNAGfePuUt/dOB7CsC6TcpfI9yewrZlbcxz0bg1ganI2GiXt94+tAGBfThm2R/JEDwf7xrOlxncGyauXKljgYI6cVXEe0BSDmgCFFDdThiail5YkcAmp3whPXcelV3Yg/MOnFADS+ABSB+xpGZT9RTDlvYUASFlPIPToKlWX5flUD9TVYA9uKmjKk4PFAA7sW6804Kzjhske9OdVdQ3THpUGGVuG/GgC7vkSFSqnGefQ1sWDuIVTa21jyDzis3TZ1ZjDcqXibpg4INbqPHA6gBQBQBpaZaot/GSAeeK6wRb2UHgYB4rndMmRnLBAuRkV09hIspKMvz4yKAJ44ER8g89OakEHy4Jyc55qJiAwAzkcdaeGIYDOQaAJY4tp7A1aAwc/ypiRn7wNS5wOlAFmLgZpXJINJAfkJpxOTmgCpJx2qInvzirEicnjNQv8vFAEJKqhYjGTzXHarCtxJLkAk5rrLl1WHaSeTzXN34EF0XVflIJzQB5/f6Y8DhtpCMeazr4FWRDnGMjNdff3Ec20suQr5JxXPakwuJzIqKF9AKAMQLlsAc1cSyfb5h6dsVahhRcMse0k4I65q4bi3hjMe3efQdB7UAYzvuYsFwe496YCw55p80gWXcBTkaNju6N6HpQBatgxXLH5m+7nv9amEe7qwX1Bqi8jFhhhx2B6VZhm88bScy9if4h6fWgC8CuVUHLDgE+tSify1Gcsw6Dpg1VRtqsRUrfvU3AfMByaANSKcTwrIB8w4b61JGSxABy2Rg+9ZdhPsmCEYVvfvWtCoE2QMAHNAHZaY26zLDo2DS3X3R7mm6YR/Zo9jS3Z+QexoAzWbBPPems+VpHPzEVC7Y6EUARuRyTVSVsKcCp3bAA/GoJOhznFAFQt8x9aaz7j7UP14qAtt570ALPKUU4PJqFGJG3vUMsm5+Ogp8BJYNngUAXBGNuB97GaYF3DPpU0DbuT6d6fhBngUAeZ2Z23cZ9/6Vps+aybbi5T61pvQAbyKfHJioc0gbmgDQWQHODViJiD1rLViD1q5BPkhT1oA14n6VcRulZkTZq3G/TNAGpagvKFHeugXCqBxWJpa75g3Za2QwxQBOrdMVcgPzCqAYAVbhfv7cUAXEbge5zUN222Jh3Y1KCSyg9qpam+2VFHTGTQBm3MwiiLZ+Y8AVzl7uZt27JPFal7KZZsA8LwB61QuFKxkgfNjn3oAyn8qMElsse+OlU3kO7AOfTNWZkdjxkj1FUJVZdwHJ9aAIXcEncfm9ahLHpnNOde/fvUZfjFACnZjGPmoQ4P3cikC55o2gd6AFYY6GmnGM08Akj3p5QKcnBoAlgG5AOCPSjaEba2CfSmRMoJIyKtRbHJd+w79zQAkfyEMM8HsKvAiWL5WwynP1qpFAxf92C2emK0obYqyF1OD1xQBs6BI0iyKeq4A966zTshyScY5JrH0bTgu1o0PzHJY9AK6KKLbIwGNpHP1oAe8uw8delSWxLtg9PWoFh3v1FXbS3fdj9aANCJdqjoRSFfY/jUyptHNI6HsOCaACLIXFSFuORSBdvHtQRzjpQA1gG/+vUJUZ6ipTwKide4NAGbdoDuyQPesHU0Z4Nqf3uvtW/coWbbVR4VyVP4cUAcLexbImhkzluBxzXPsyRSEbskdq7nXYwuHKArghmxXD36COUFCrKwyeOaAIjOCzEEhvX/AApREkKvKzMxYdDxzVZnyq5P0qQXO5Qr9xyaAKwVHmzJ0NQlSGJGcVYY8bT0JyDTBhVJJ5PGKAIgwDYzkVIp2NkE565FIdnYYpygMuB1HP1oA0rWTzvm43D73b8aun5FwMY9qx7eVYpQwGT71qRMrLxuwwypHb2oAicEHONoPI7Vv2D+dao/8R4b61htGTgZzk9a1tGYecYiMbumfUUAdvph/wBCZR14NNnbKkexo044UrnjbTZjtkxx0oAy5m2twetVnfJqWfls+nFVmPOfSgBrnk+1QSvgU9mJzmqsp9B2oAYWxn3qpO+1T6mpHfnGapyuWY+goAjOcYHerS4RACTjpiqiNl+egpZZwcAGgDQSbaoOeOaeJgR1rJW5C/LnIFWIpBt3ZoA4eA4uI/8AeFaLnmsyI4mQ+4rRJoAQ0gPNBpKAJAaejYIqJaeBzQBq2s2QATzV4PiseBypBrRjYPtA70AdRo/EDOe9aYYZrMsh5UCr7VdV8KPegC0h5q5ETuA7VnI/zVftz+8XnvQBeU/OxP0rL1l9ju/91AB9a0gfmUevJrI14/vVXPGNx96AMaMfIGIy1Nl2yArjafehWIYrxlqrXc4TKDnj5sfyoAzbwlHKRn5T/EP5Cstw2T96tKUGTPO32NZ0rupKH8DQBUfIPXmoyO/NWY0VpR5mduecVYu1jYK0KYA4z6mgDOALU8KT2Jp20g9MHNOCtnk7R1oAjCMvOCDS7c9c1Lu3HpuI7mmMrDjr7UAIi4YZ6VrxW6GEYUsVHpWbApZ1XA6967bSdPhdTvdC23cVJ6D2oAwrWVI7oQbWIB5OP0rpra3jkCsE3HHI6Yqg9jHBdBkU4LVrxWshAdWwDg0AbunsiwFEYKwGB7VdiCqzAsSR37VgRrKkme6t24rdtnS4h8xgVYcE+9AFmOAs5IwffNaVtGEP3efaqttGVXJ6HpVxDznJoAnIBz6GlRBn2pFY424/GpEBWgBSg7dKaUHXINPpp5PtQBEU4qMoSMYqcg0wkj3FAGfcRLnnrVJ4Ryc844rUnG4+9UJB8+CM0AZGoWgltWAYECvMdbs3trwq5ODytetTocEY4PNcd4jtEdhKVwY+/tQBwjQsqjPcUjxMqAFTyOCK0Llo0m4BOeBxxQ7I+1QQQBigDK3MuARkfyqSRVChsjOOlXZoEK7iPwqtJEFQSAAjuKAK5U47nNOVWXoOvWn5Cgd81Im5GDcetADUXbz0q9aTAZgJyc5VjVUheXHQ9R6VJCoU7wOFOQTQBphG2g4wc881dsgyXSOeOahys8aSAYLdcdM1btFAB56cj60AdfZsN+R91ulFz94H8Kg0t99uh7qcVPOdyN6g5FAGPc/eYZ71VYjHWrN0cOcetUy3PNAETnk1WlI2n1qc9z2FU5X6560AVZ3KrnvVNm4JqSdyWxVOV9vyjqaAHM5AwOvrUDy/MfakZ8CqzvuOKALCP82atxSbsdqzA3IHarML4HHegDnI+JF+oq+az1++v1FaI5oATpR1NNJ5pRQA4VKBUVSI3zYoAsR9K0dPXfdKD0Byaz04Na2kJ85cigDpEOEAFTI3rVRXOOKlQ5wRQBfibkYq/Af3igY5rNib5h7VftWzMD2VSaANBfmlUD1rI107rogHpxW1bDL7iOlYOrOA00jHgZI9zQBg3Vx9nUAcOentVNmLqGyAM55qGeRpJGduSTSRsWOPTnmgBs7ptIGemc1QeMu2CwwepFW5QxbC5+nWmmIr1HPc0AUuF+UZx2PrTS2e34VOYQc4zj19KYVKnJXjsaAIsZ5AJNKY3ZeRyPenHdjjj6UoVxyc4oAYIH5IU49acFI/iGanWUk4OcAcc04xI5JVRz3oAhhwkgJIxntXS6cpLM6EKCBuPpWHFZlnHQDtk9a67SrN1tGXyyWJzx3oAiH2hZhly69gelbdlIixqZARmqQsnZi2wg+hq3JtEIiKlXXowoAso6Xb5jU7VbJ+lbECkw4P8TdPSs3SbJkUtwC54HoPWuigt0CqCeRQBbhiJjGBxjFSBME1KmAuBjFSKnc0ANRMVIRzRtIpcflQA0jBFIRTyMijFAEZH+RTCvWpiuaYV4OKAKUy4PFUZxg1pzrkA4qjNGWbAzmgCg6kKOuaxNUsluFdemRXQyJhhknjrVaSAEngUAeTXVu9vM0UnQHCkjrUDQbSXQE/0ru/EGhtcIZoU+ZRnaB1rBsdMLxl5PlJ4K0AYA3orGTLA8YxQ6oluCq5b0z2ropdMRIime+enIqkNPRUYbiSOxFAGAGA4K47EelTLAGXO4D0zVmWyRTldxOe9WYbYMhjKHAOckdKAK8Nqo+Y4ZT1ANGzY2ACU/hHar4TClANo9TUPlYbABGefxoAnsWVg0Z6scgHtWnbLtOe1YasUkU9GBAPHaukijG1TjqM0Aa+lYVnQDtuFTNyT71BYDbcJ7gr+lTOcSMKAMm54Zx3BqiTzV+8GJZB6nNZ79fegCKRsIR61Qmbr7VdmOBWXcNyRmgCpK+WJqjI3zZJqw55xVJ+WJNAA7ccGod1IW+Y00nJoAkX3qaNsHNVweamU8igDCX7w+taBYrms8dRV1jk0AJnPWnrTKevSgBxPAp8f3hUXU1InDCgC2vUCt7Tk2x1hwKWlXFdHbrtjFAFsNnGasxngVTU5GasI2AM0AXYmwetaVjyXPfAFZMB3H8a2rFcL9cmgDRgO1Tj6Vy+uyr5xiB4U5OPWumRgsLuTwK47VN0l05PUsTQBgMHLlRxg80yVypAGcirkyqnO3BP6mqyxM7bz19KABEJXec81DLwvU5qyWZhtBP0poXkhzmgCluIXB60oGSSQSPSrZgTaTz9cUq2zs4VTx6+lAFdYVJ4J/wpDA7HjBFTSL5TAAH3pyMcgEbieePSgCsIGYkY5FPS3fd1Hrwa0VgaUgnCLjvWnZW0MKk5DMB1J6UAUbGznZd7ocAgYPWu70W1P2QMVCk96yomTy1UKu4nJ561sWFyIoShdSM9KALMqJEM7cj1xVdIVnm3bQqg5I9alNwJpfKXkdM1ahi8sDPJPtQBZtImiUZXjtV9Fb5e3PNVowXTrjByKtwfeA5oAuxKSvtU4Xjpio0yBwc1MCfTk0AJilK5P14+tOOMdKeMY6CgCEqB6/hSFfTHNWDyMEZzTCq9B1oAhK+lRlTVgrxzUbJQBXkTK5qqyDccHt2q84+U1WYLnIoAoSQqx46+9QtEVYAqeK0CgycimlMj2xQBRaNXX+tc3qmkvHIZYQQGOSBXWmIY9qieIMpBGTQBws4V0A24Zeoqi8W5D13djjpXY3ukpIC6Lh/WsWewKjawKt2oA5ll8tmBVWOc8jpTlJf5lOMfrVuaHYzK6nb6+lVZYHjGFO5euRQAwEKxUj5h3FMlztJwcdavGNZIg4I39/rVZ42cByR6EDsaAKzRs2Hxxnnity0YPbr2K8GqUELNGQTgZxzVywBEjIepHagDWsiDKuOo5qafiY4yOahsP9cR+FWLj/WE8c0AZd6B5pPqKzX5JrSuzkrnuKzX4LEUAVZ25IzWRcvhjmtO4bAPqaxro/vDQBXLZJqq/T61Yznd9KqO3AoAhY/MaTNDdTTaAHg1Mh5qAHmpUagDFHWrhqnVztQAUoPFNJxSodwzQA8VIp+YUwdKcnLqKANjTo8tn1rbHAArN05AAPYZrSB5FAEwOEoD8gCmFsLToAS1AGpbL0zW3agLCD0yKx4FOB9K20+VIl/2f50APu3Mdoqjqx6Vy9/gSsD35zXSam2I1UHHFc5f5ADgZyMGgDGuFZ+gBCntTDIR8i4BHU1Oyqin+83UelViu1uvyigBwySCF57ipAyA5K9KiXHUHHuD1qyE3qFDAnHWgCGaTcTggelRqZAMg5P9KuDTppGBReCcHNTfYkjyHI4GCfWgCokLyhRJwOpz2qwbdEztCqPWpUC7eA2D6CnLbEdTgHoaAIkLEhA2cdjVpFIxuCq3YGkEaIQBjcePenuACFX7x647UAW7dCzkkYA556Vd0+LdIUmLbTyuMioIIV8xMEgY6epq/GwAYkEFR8x9/SgDTtoUV08pFXHU5zU7M/nkgkjsBVbTsvGxDcA8VoRwl5Bg9etAFyzRihyMgVoRRbdp70yBNkQA71YQEmgCxGODmpgMnIxxUaLwMVKM7jnNAChS3HOKUKRk9acg6EYzUgI3ensKAIHYq2Mcimq2W5A5qWVMtuGeaYF5oAXA+tRkcdKlZSMfpim45OcZ9TQBWdfTIqmynn61oEAsRVd0wTQBVI5APWlAGM5zxU4hDA+oHFMKYoArsMdKYRxU7rnvURSgCIoCMYqrcWiS5BA4q7jHXmmMOTmgDmL7Ri2Sq7h6VgXNi8GQoIHevQHXJOKz7uzjnByuG9fWgDgQpVcEkgnrTlRlkAKgq3HFbd5pxhbBX5exFQJaBlYHjH3T6GgCoEIXaAQBT0UpNG/bIBq60B8sHIJxg1Gbf5CBjjnr3oAuWi7Zj+Jqe74bPtRAhBV8Yygpb3gqexAoAy7sfIvHrWTJzuzWtd/6tfqayZeFJoAz7psfyrIn+aQ+9aNy/wAxzWZLyxNAEGcBj7Zqi7fKDV5+I2PbFZ0jfu6AGMaBTA2aeOlACinqeRUfenr1oAyquDoPpVOrJbEYPfFADJWywAqZBhRVUcmridqAHdqmtl3TCoSatWSZfNAG/ZDEZJHWrQPIqvD8qACpg4FADyct7VcgTkA1ThG5hWjEPmAoA0IVJwB1zgVsoN1wo7KP5Vl2i5lXjgc1qRD5ZG/CgCDUiWKDn7pNc/esNnTO1uPcmt7UWAZc/wB0Vz7q0zO38I6UAZ5Gf9omkeHkHIz3FWyjKMBR+VNMTt1Xn2oAqpCQwwuc8VditETBJG70zTo4ZH+XPPuKtJCEwMktQBKVVEVQxz1OO1J5JlGTgge3WlVdh5GSe9Ss2xQoHzHvQBQmiaNT7+1QKJWA5JAq8zOWyeRmnxomQdhLHpjtQBUWBnkXJOT3HSrwt9i4AUMRgsTU4jiVSSAO/wBacjRE4zzQBYtFVYg2Mso4Jqq8zGXGTgnJwe9aT7BagABQ3Bx1FYsiFZXCbsE8ZoA6fSlPlEgEdq6C1hCrvI61jaFExsRu610Ma5UDoBQBOiZUZIqeOHqMr+dNjCjPJqzEVxz24oAkWEhT9Kcqc4NSqy7Pvcnim/IT97/61ACiFu6/0pTG4GQKkBDY+Y9e1BBB4fFAEYjZjnBwe1NMZU5wcYqwoYqRkEeopQmVx1xzzQBWKcZIphTBPceoqcrgHHXNNK4GB1oAq7MHIqJ1+Y/1q0V7VFInPHagCqVppU96nIyenNNK8UAVSuB04qMrnpVorx06VEUxQBAV44qJlOaskZqNl570AVGX5uO9QyJxVx1xUDLnigCjLCsgKkAisee3aAsBypHFdCyAfQ1XniEilWHBoAwIWVsoyjkdaQBQ/GefWi5t3t5iBkrnIIp5G5lcY2kZ5oAnhyYsf3SRSXvKx9+KkgXETntwaZeDMa+xA/SgDKu+YwPesefO04rYux8o6c5rGuDwaAMi7O1jWe/3QK0r1cxl/Q1mE5BoAilwts/0xWPI3Ymte7OLUEd2rEuPumgBVPOalU1XQ5UVMjUAP709OtM609KAMqnkk4z2FMp3YUAOUc1aWq8S55qwOlADupq/YrlhWeK1rBfl3GgDVQ9BTy3GPWokPelLfNxQBetF4zWjAuWqlar+7XNaFuvJIoA0bRfmY+g/nWtt2wqvqcms20XIx6sB/WtNzgL2wCaAMrVWyVUcllwfpVFYQVx07VenUTT7s8dqd5QA4FAGaId2CRjHB4qeK3PJCge5q2IBvwfunmrAh+UY5oAzjGFzgfU03Y5YYwK0jCApGOPWoChxjAoArMoVQgGWz19qEhZhnHIq0ID1I47GnqhB+Xt3oAgFsXxkYoECxsQxIzV1Ymc5PAFOljLrggfWgDLMakjkEe9T20eWAC5XPU1L5AJwFyTVtIljjAA+bufWgCJ0LhVOQOpHtUcNl59yu05VT85q26ksCRgnA+taWn2gRWPUtyaANCwg2IAO3HFakQAHNVoVCKATirSAnpigCZF445qdM9qjhUkgdqsouMnPNAAjEj6VIqnkkY+lPiQfU44xUoVQMEcfWgBig7c56GnhMjjr704LkEAf/Xp6JgUAEeVJyAaRmwOAAfanuu04A7Z+tRBfc5zQA05xzjNJxkj8yKeUOOPzphB6d/Q0AMK5PTJ9+9ROvyjNWDnqOoppAOQcUAUiuPamkcdKsuh9sDvURTGR3oAhK1GUx1qwV5HHPpTStAFN1xmmFeKsOufpUZT2oArMpJqJ1wKtMvNRMvWgCqy5HvULpmrLDafeo2Hpg0AZtzAsi/MKzxDtUqR908fStqVcjGOarFF349eKAKsSEQsM9RVe75jYemKvbfmKDuCKpzDIYH0PFAGTd8KD9axJ+S31rcux8gz29KwblvmYe1AFCbDqV7HIrJwVYqa03YiqFwuJNw6GgCtdjNmT/dYVhzfdat2UZtZF+hrDl+61AEULcFamFVUOHBqyKAJVOeKkU1ADipQeKAMyndhTaefug0ATQ/cqYdKhi+4KmFAAK27RdkC+pGaxVGWArdjwEUDsBQBZBwuaAfmxTRytOgXfMq+poA2LcBY1B4OK0rZflqggxgVowAADtQBqWa4jz71Yu22oR6gKKZF8kEQ7tzRdDfcbOyjn60AQCP5l9eamEeT0zinbOVPcGrSx8ACgCuYwdp4qRU45qcRfLzj1pNvOB0oArNGWHfFOFv3Iq0qY604LzQBU8jOc9KeIsAqBVopj1pyJjkgH+lAFYQ7VAHU9aBAWHHSrgTdnNPEQPTpQBSECoMnrj86RlG0YXAHc1dkUEEYqIx5Q5/LNAFIZlmCjnHtW9bREqC3pVWytgWLYB/CteNNq7aAFVeOOlWoFOc1HEmWx+NXoo1IGetAEsIXGADmpguexpY4gVGPxq5FEuCWAx16UARIpUU5EYn0HrVnYNuMdOlAVSehz9KAIRGec/XinlhggDn2qQgFepoVMcgnP5UAMPIyRn14qM8MBjGfarAULnNMeL5iQeewoAZtII9aYy5OeM0oByR1/GnHIPT2oArleefyph/PmrBTIGO/c1EeMZwccUARlc561EUwe1TkccU1kxwDQBWK5/pTSuBz1qYjmmFeeetAEJQYJPNRFByR0q0RxUTLjNAFVlqF+M9KtOO9VnHpQBWccnjNQk9qsSDGTVduox1oAhdaqSjHI7VecZGaqSjORQBAcCZD681TlH75h65q2OcEfwnFV5h+9B9aAMa7OAOO1YNzyzH0rd1A4yBWFP1agDMkPzH0qpONy1YlOWI9Kgf7pB7UAViNyuPVTWBP91xW5uww+uKxLsbGdT1zigCoKsI25R61AKehKke9AFgU4HFMB4paAKNPH3KZSjpQBZi+4KkFRx8oKkFAEsI3OK2UPzY9Ky7ZeQxHetKM96ALKHk1asF33BbsKpA1qaamELdCaANBB82e1X4hgDFU0XJ6VpWyb5I1POWA/WgDVRc3USdlAzUfL3DvjqxqSLmeV/QYH40IuWoAnRMqD71ZRenamIpC9KnQYU5FACEc8CmeWAelTBMt0p4QelAECqBx39alVOakCAYqQJkDNAEQjJ4FOEe0cjmrCoARxTimR3zQBX2880EbVJ71PsOOmfwqNl56UAV/rT9v7s8U/ZnjFPKjbQBNYr1wOpq+qkelVrVAF4xVxRwKAJIE+Y884q7HCWIAG41WiUht1aFu5bp0Hb1+tAFmGDauCOcZxVuNMdfrmq6ucZHUVJvIOcf4UATkAc/rTRuPT8aj3NgDkgd6cDgUASBc8YA98UjABuRx7U4E47+9DtjH06UAAiypwc0xwFXJHNSJnqWwB3qCUl2yCRg8CgCHBDYH40ZOPvU49P60wnGMmgBxXJzkYNIVHoKUE570459qAK7Ljn1qNs4zkD8KsMucioSNvoPWgCEg8AU0jHQVIQMGoyOo/lQBGeOOhqMnj1qQ5qM/nQBC2c+1V3U9qtMOtQMOKAKj9KgI45q0y9z0qBhQBXPcVWl96svxVaUZ/GgCuoG5h681XnA25A5BqyeJV9jg1FIv3xQBz2pY81h71h3HAbFbWoMTORWNdDIagDHk4Y1WZvmIz1qzLwxBqmzfNQBWc4ZvzrI1IYuT7nNa8vEh9DWVqYzJE3+zj8qAKQqUCo061MOFyaABG5xUgqDODmpgcjNAFKlHSko7UAWIWyCKsRrubHaqcJPmADvWtbp8uRQBNGm0CrUfA6VFjGBUyKce1AEnbjqeK3rRNkKDHOKxYV3TKv410MSHaox0oAsxJ93HrWpYp++U/3QT+lU4UOBgVp2SfM7EdFxQBagTELE9WbH5CpIU4B9qkCYiiX1y1SxR4VaAHomR7U4feHoKeF2rSKnNAEioKkCYoRc1MBmgCMLg4qVUxTwme1SKnNADApxS7cCpNtKVoAhAycnrSFB3FThPahkyeaAK2xfQ/jT9u76dKl2YoC44xwaAFgUr1q4qnPHSoYlwcGrsaZHTOKAHInGOeBVm3bbk4zxTIgFGSBVmCEtlcEDqCfSgCwmCRgHJx1FSOuMDH1pYogpzzgcDFS7Nx9MUAMQbTkjrT9vP+FPKbTjH5mnKu3Jxz2oARQfyppBJ9R6+tSc8+lJsJ54oAUj9zkCqxJ2nPIFWgPlIHGaryr1U9QcUAQnBGaaVPYY7/AFo4OB/Olxj1xQADI4NKCVIApT0zxgUhOB/SgAIBB7Co2WnBsY9KU4KnHfpzQBWZSvI6ZqJjjp+tWXXdVdl5ODj60AQsODjFRHjtUx6etRv9KAIGqNhmpWFRk560AV5BxVZunNXHGRVWQYJoAqydD1qseQfarUo9Kqv8tAFZxlx160yfiU+/SpmUbh9aguT+8B7FRQBzeojF2464xWTc1r6jzdSNWNcctQBkXYw2az5Gwc1pXa5BPcVkyd6AI5jkA1nXy7o8915q85yv0qpIN2fQ0AZyckCpqi27JCPSnqcnNAClaAdv9aWkPSgCtR2opyLub2oAmtkzICa3bdMrtA6VlWy/vB7Ct2wUNKwPTbQAxl+apVUjB704xlXIPrUgXA5oAs6fDvmLdQK3oEzVDToNkRY45rWt1yOnWgC5BH8pOK07JPkb3OP0qtEmIxxmtK0UCP6sf5UAThQWiHYJn9alRe3oaeEwy/7oFOVcMxI60AJjJHtTguDTglPCcCgARcVOq9MUxVzwasIuKAFVT6U7aAPalC+van8fhQAwLnp0pwXjpTwuKcEzQAgXIPpQV6elShcA0YPQUAReXk0GMk+tThTUqp9DjrQBAqYAwKtQ8Lg/hSMgxxSIrBgT2oAuRRBmBJq6ihcD8/eobYArwatIBgErkmgCZW3DgdDSndxyAKSNSynJwKkVQDnOcetADWAOBu6daFRSp+alPAyB1pRwTkfnQAoVex/Sl3HOAQRSBvTvTAQeCOKAJC5BPpTGUSKRgZ6/WjkZI5poY9xj3oAgePD4PHemYYNg81YlAdQxwTnODVfHPOc0AOBBXHSmnjrg04d/X60hAx1AoAjPU8YpM7RinnufWmHuCetADTyeenSo5FIIPtUnoeM0xun+IoArEDHAzmoj6nPNWHBqFunU0AV3AxxzUJ61YfpUDcHigCJ6gcVOx9ahcZNAFR15zVSXnrV2Xp9KpyjmgCE8qDVaf/VK3cZFWRzkD61BOP3H0JoA5y//ANYx9qw7g8mt7UOucetYM46gUAZlz0I9ayJeGNbU6k8e1ZE6YagCm/Q+9V25Bqw4qA9aAKVyuMMPoajQ1alXcCvr0qmvBwaAJjQaAeKKAKtTwjIJ96gqeD7p+tAF60X5wa3NPH71jjtWTZJuFblgh88gAnK0AWHh/eA460LGHkVR0zV2VD5S4+9S2kIadQBwtAGhBDsjVcVowJtIqBFORx06VdgTJHFAF6FDsFaEKYiX/eqvEuABxV+BcoB2BzQBYKYZcelIy4b9anK5VD7U1l+YH1oAFX0FSBeMUIMgdalVckcUANReamVfQc0BQD0qQLgUAHbilAx1oA5zUgT9aAADNOApQvPHWpAmR05oARVzx+tOCDpz0p4Q+nSngY+lADVTGcinBemMZoAP4CpEHzcDmgAVAOCOnWn+X3xTgP8AHNPCknsaAFhUrgnrj1rSgVSu7acVQCEjgde9W4HKgnjHegCyQCDxgUDH3fWlDbxz1ppbbnHWgB2AvVec0Arn6/pTCxxgEkUZ7kc0AKQM4GabJhVznAp64xn0pcLznoaAIQ2Bkkc01huHB9+acy7SRULy/MQAeDQA8HJx3pCvGMU0MfvZxTw4PQ0AR5O70NHv2p5AYHGMj0qPGMgjvQAHpUTfT/61SkfL9feoyD1x7UARg88frSEgcYH504rgd/8AGmc5oAicZ47D1qs5z2q04yO9V5FIOetAED1AwzmrDc5qFvagCFvfvUT/AK1Kw4JqByaAIX6GqUoxnPSrr9elVJhQBWThj+VRyj9y2fepTwOKbcjEJHqaAOZv/urWJMnJOK3L8YAB7ZrIdc5BoAzHTOQaybmPk1uSoD061m3KcHI96AMVhzVZxhjV+RNrnI4qlKPmoAgccZqpKm1tw6GrpFQSJkEGgCBWp9RDIJB6inqc0AV6sW/IP1qvVm26H60AbllHtjBx1rasl2yhh6c1n2kZaJcVr2y+nQUAX4k3buODU9hb7ZWJ4ApsQG0AVqW0R8vdjlu+KAHpGGPt2q3bpyKjiQ5J9qtwpgg0AXUX5Rxzir1qnytkVVgTKg+laNsuAB2IoAkIHkr65xSlflBFOHIIHbmnquVIoAYi/rVhF9aYijI9asKuaAAJkA0pAPAp/bHNNC+tAAq9hUijtSKvNSqpoAAnOMdKkCcHNORcj+dSBQBnnrQAm3C5xSAc9PpUgXcT3pdpzggetADQADxmpAuRQEHQ8VIqjPGaABUPcVOqAAYqMHHrUgBJAHJPcmgB2GAAAGT6U6NXzjGM+tKGVVwBzUkR3EHjn0oAsxxkAZx6mnlB/d4NLk9gfSgbjjNADTGpUD9aiIwQO9WCCBx3phQg880AMAwQR0ofGB6085K9KYVzj2oAUqrISc5wazzCwwc59KvklQD37+9RuoxkDGT0xQBVI2ryPwpitgjHNTn5lIJqMKN3FAEm5cHnH9KieVBy1I/C/jVSd8E4OfSgC4JEOTuGPelIyMAZFZYbI681ZhnKqUZj7UATPkdOtRHP/wCupWcMTnp2zUbepoAjPQf0qB+RUx6cnpUbDnHGDzigCqRyaiIycgVZdQev61Xb0FAELjjJqu3uKsuPlqBxg9aAK79zVaQZqy55xVdhlgPWgCs69qiufuRj15qeTgmop1z5a88KKAOd1FcuQO1Y8ikNW1eDfM/oWNZrpgmgDOkTJ+tUZ4ywJHOK1pV+U4qk65bnoaAMK5TCnismVea6LUIgu3jAPWsKdfmOKAKZFROOanYdahcUAVZVwd3501TzU8q7lIqqp5FADKs2vVvwqtVm1GS34UAdVYktAMfStu2TaBmue0adOEY45zXSGVEUc0AaFnH5rZAzjitmCM7AoBFVtLjAt1YqQW5Oa1Y1AwMUARJGcYNWIkwwFOKZYGpYlwRxnNAFmIYHQVfiGCCRVONc4FX1Tp24oAegzIcVIgwcd6Yo5zVgIS31oAI1wfxqcCmBfSpVXAxQAgH5U7bz9aeE4pwTcOlADFUgipguMZ7+1Cpk5GRUoTJGMj8aAEAx/OnjkHrTtvelVTwQOfegBQo68UBec55p4U5p23OcAgZoAYV6Zp4A4PpTgvrQAPSgBUyee3angYI4/GlVT1xTtnTIFADSSxxjPFWIAOD0xVYj5h3zxV+FMgHjP8qAJQSF6UoYnFBGBQOlACMxamlj2zSliDjApCygcjOKAHKT3oLKDwBmmBht61CepOCR6+lAE5+bJ4/Ko3OB/wDWpqv1GD0pS/pxn1oAifBVsVCAN3pgVI7YxzUYYbvrQA2dC0Zwcd6oSIcccj0rV3KR2IxVOaMbdwPTsKAKQX+XHFNfIxjipJMg9KhDEtjoaAJEmbG3uP0qyGDrkfkaq7Qo44p0UpDdMjpQBK69+g9qjPIxxjpVjgkkgVEygZyKAK75IOMCq7jrVt19MVWdcE0AQMcrzVeTGc1O2elQvzQBVfHpUZA5NSSdDUYxj60AQOmenNQy/wCsz/dH9Ks4y+DVWdj85/2aAMGVc555rOmUqxrUlwDnb0qjNsLd+aAKTr8p96qmHLAgcVe2gtgHg+opUjI3cZFAHPasmEz+Vc9KMgnvXVaumISxU421zD4x70AUHqFqsypycdKgYc0AQMKpsNshHvV5qqzrgg/hQBBVqz+8/wBBVWrdiMu/0oAvxMY3BBx71vaXeGe8gikGfm6+tc/W/wCFIPtGpF2GQi8fWgD0SDCqoHSr0Y3E4qhEuG5/KtKFcge9AEyDIqaOPmljTBFWVTK55oARAAeBV5OVXI7VWRcDHercQwq0ALFyvTocVZQblGBgdKhgUgN71bjXjb3oAci/LTgvzccU5V+UdcmpVXjgUAJs5/D6U4LipUXjoMipFTIzjJoAiVMEdxUoTB7VJsJGSKeEBx0zQBF5eRzzTwmOAOOxqUIOM/pTguT6CgCPbxShD0PfvUwTr/KgIc9MUARbeR6e1SKuMn1NOKU9RjtQAgXg0u3pnqKdt5zinYwM5oAiK/OBj8asxE5OOmKgHLZqzEh5PXAxQA7quKNuQMflTjwMVBK5P3QfrQA5jyQOtMPvk1CzNuBANPjZ3IO0470ASquT/WlK5XgUoJ7jp6UpbBA7igCv6Zxmmkg+vtT522dByelVg2W60ASFc8HkVXZcNxyKn3AcZ4qKQDOcjNADN3AIzUibXGR1+lRHb2bHFODBcYwPrQBDc25yXA7dBWaVb5u59K2gyspBOfWqU8apISANpoAoF2GM8jpUkRwR6U6RBnjBBpqrtODQBeVhgU11x07VEGIA7DtTzKCcHn3FAEJBOQc4qvL145q2+RkAk8+lVXznnr7UAVX9cioXWrDj0qBjzigCtIvWoHBHTtVl/eoH756UAR4+8fyqlc8JIfWrx+4O3NU7tRtPuB0oAxZR8pGKzpgQxBHNbTxhgDjms+5iBII6igDP24z+lKflhLA8mldeeKMZXaRQBkai3+ispOMjFcq5Le9dZfqrK6gEgCuX2cUAVXUFSMfQ1UdcGr8inH0qrKufrQBTcVXmXKH25q24qu4yCKAKVW7H/WN/u/1qpVmyOJT9KANDtXX+E4Ckbyep61yKAu6qO5r0TQrXy7CNAPmbk/SgDXthLPIPm2qOpFbsCBQoAwBVO0iWNcAZrQiAB5NAFhFyQKtovQVHAgxk9atIvegBAlTIuFFLt4p4X5RQARgg/SrKLlqiCc4qeNcgZ+lAE6IQR0xU6oMBueKai8DPUd6sIvA6kn1oAEQE5APvU8aDHAz9aaiD8KmX07jpigAK89OlOCgNx/KnheB/WnhOBxjNAEYUHNOCU8IKcF/P19KAGBfzHegLkc8Z7VIVxmm4xj1oAZt5Ap23tinD3pcA445oATbgY/Og8DjpS5GetIfrxQAKvcHip0bC9qrhnJ4XipY1bkn8qAHsxI64FIFyo6UvlnAyadswPc0AMKenrQBtXGMUFCO5/CnAZPNACKKNvz5NPwMUY44oAhnXco4zzUIjG3sRnk4qyQO5xUQUgYPr6UARiJTnio3gBHXkVa6HmmuozmgDPMJxweM9KcYcA5Ax7danIA/xpW5TrxQBT2lckbh36VSvJ8soDcjqD3rWKgqf85rGu4Q7M3f2oAYrFh7+tH3fwqOIMjHPI9qe5yx+lAAWDdM596aHOaaW7DP1pwG7BPWgCdW3rye3aoZFAPHH1qxGhLH2pkq4Gc0AUnzVZwMkirjAAknkVVdfw9KAICMjFQyDnBHFTsKgfrmgCM8qR6VTu+VX8quDue1U7kZQc9CaAKhGFyetULlMknHStFhxVOcY5HT0oAyXjJORmo3+VSfSrxXduyMHGapzLkY6Y5oAyLlTtYjHQ1zA44PrXYzoDGxx271yLqRPIh7MaAI5ACCRVORKvlDgkVWdOSKAM6VeTVVxyauzDk1TccmgDPqxa/638Kr1ZsYzLchBwSKAOg0Oy+13iluI15Jr0zSrfCbwV2j5VrktA04Iqgs2O5PFd/aRQJCqBsY9KAJY0KjAYc8nmrsCliACKrRxws2N7cdhWpaxRAjls/SgCxDHwOlWlTC9qfEkQAxnj2qUIjelAEQXd0qVE6VIkaZ4qdUAXg/iRQBBsx05J9akiXafwqQIM5I59alRc8Dr70APixnnv3NWkXJBzz0qJFOMlfyGasIOg6D6UAPCdx0qQJxkCnIpxzjH0qTbkUAIi+vWnhCCacqnjNPAyOeaAGBOc4GacF9RTgOtB49aAIyvPOabs57elSkZ6cUBe55oAj2/jShD9BT9vPA6U760AM8s+tIY/QfjUu2gAE89KAERQByOtPCgHpSgccUpHFADQMkA0p9qXGM0EUANwaO/IpcUoFADTSbfWnkc5NHAxxQAwr60zb6VKw5puOKAGkZ9KaRzyKkxSEfWgCu8Y9M+9JsGOPWpiuaTbkc9aAIGTg4PGaoXNqwywrV2+uKZIgZcHkUAc8iFWORzTpY1KghSDnk1deAK20jgdOKDECvQdOuKAMhlIySOPUUqDBDLyM/nVyW3bcSDxUJgdcMo59BQBZj2gcdailBOeMVPAuyPD5DHtUci4zx17UAUHQgnGeOagdRu4q1Jkk54NQOvHsKAKrr1AqB0OOwq265z6iq0gzQBX27VOT2qpOuUq7I3y++cVWcbgaAKbKStU5xgZrQAwCDVaVMkjFAGa5ABPfFUJeuR0NaMsZ+Yke1UJFJUjFAFOXCrtPeuUvU23z9icGusnTKANkEVzGpMftxB52qMe4oArHpnsahlXHIBq0OB0qOUZRsfWgDImXOaoyCtS5XgH1rOkHWgDKrS0RVbVEDDI2n+VZtamgYOswg9ww5+hoA9M0eFW5IwB/DXUwIojwBzWLoiKQR8v411cEHyA7RQBDBDg5rVt06cVHGm0/dH5VciHTCigCdDwAOvSp0XPGabGACCQKsqwyMZFACBcAEA1OikjgGkVuevSrcStxzweOtAEQRsD+VSKpPUZP0qcIOh69KcNqt2FADIwQ3U/SrCLyM0ium4Dnr2qUqEXd6enegCRDgdqlBXAyQKzjMSeMk9KlTfjJOB6UAaAHHFKMetQRMzLgilJIOOaAJ8r60u3OMVWy2RmplOFyaAHlaAtMMpAz0ppc9jQBLge1G30qHceTjmno+2gCQj3oC8UjYPI5oUZoAkA4pccUmeKCfegBcUh6UBqUmgBNuaUCgGloATFIRTqDzQAzvQRS4oxQAmKYRUhFIRQAwDIpCvIqTFBXNAEJXnikIqYrTSOtAFWWEPgjqKgaMgYI/GrxHc1G6ZFAGa6HOQOKdFHnqvWrDRnBwKUoAvA/KgCu6hhyAffFVZIs8Dr71eKHGfwqJ0GSSTQBlSqVOCM1Wcc/zrSlXrnpiqjxgZIoApkcZ9arSjFXXU85qrKOtAFGUZOMdKY5wOOh5qw65Garn+VAFUjD49aY6cZqd16c0xxnp27UAZk6bSc1nSqN3TvWvOoIPrWbOhIJHWgChcrmPjrmuU1PCXocoDuX9a6uXJBB9K5nWUHmRuB3IoAoIcgUrj5ST9KAuOelKcOnNAGbOuc+3as2Ucmti52kVlSjrQBiVr+GgreILVWGQSw/8AHTWRWt4bQyeIrNB1ZiP0NAHs2lwIoVgCCOhFdNBtKAFfyrm9Nt5kVcMSB610ECSBQSQT70AXkiJ6dPSrccbLg8VVjD8Z5q0gbqSKALUK5OGCn6VdSGI9yPXiqkTOmCQKtpIMfd/GgCYQIGAHIq0gVf4Rx6VXiiLkNhj+NW/LVF3EHPoaAGtKifNtyewqnNdscqAOKlkZmbd+naq7xsTnYCPpQARzuzAFsew7VrBS9qpwefWsyO3frxj6VvRRlbdAeuPSgDPEfJyvA9asxhNuSRUEocucnH4U6NSeAw+lAF2PZxjv6VIUB5FQxrjGDirCjjrQA0pimM6rxxUrDj3qoVYsQRn+tAE4VWBIxTSgz70sSFetS7c9etAEW3jimhcdTwKmK84AphXAoAkRQVGecUoTDHrihBhRT8HNACY9qMH0pxFAoAQDHNNJp5pPwoAQdaUUoFGKACg0YoxQAnailpKAFpCKWmnpQAtKeKaDS0AIeaYRzxUmKaRQAwrmkK1JgGgrQBVdFJ5601kPYGrBHI4pjDnigCErgdPzqvIu1ec1cK9aq3CtjP5UAU3Xk4H0qpKhU5C8VZJOTxTWBK8dDQBnygZyDVKVCcmtN4wwJI/KqzxhenSgDMdCAcjmqxHJ75rUkUMMECqjQgNxzQBTKgioiDkg8VcdBjPcVXde/egCjKgZSO4rMlQgkYrZdAcn2rMnX5jQBkToQNwHFYOuwgQq46bhXUTp8uD9a5zWkxaSZz8vP60Ac/yy8UhfaMHpUiAMvFRupUc9D0oArzMGBGKy5x8xrSlYduhFZ82SKAMGtrwrIkXieweR1VBJhmZgoAII5JrFooA+iLbUdNGM6lZKPe4X/GtWHVNJ4zqtgAPW4T/GvmKigD6pi1fRR11iw/8AAlP8atxaxogIzrOn7R/08p/8VXyXRQB9fJrWg451nT8/9fSf/FVah1jw/kb9b03Hp9rj/wAa+N6KAPtiLXPDqLxrumH63kf/AMVSza/oDHI13TOn/P5H/wDFV8TUUAfaH9u6Dn/kN6Z1/wCfyP8A+Kp41zQcA/23pmf+vyPj/wAer4sooA+2Itd8Pj72t6X/AOBkf/xVWz4m8PhcDXdL4H/P5H/8VXw5RQB9tnxB4fYnOt6Wf+3yP/4qnDX/AA8AMa7pf/gZH/8AFV8RUUAfcS+JPDwxnXNL4/6fI/8A4qpP+En8Pf8AQd0z/wADI/8A4qvhmigD7kPibw+Txrumf+Bkf/xVH/CTeH8/8h3S/wDwMj/+Kr4booA+5R4n8Pf9B3S//AyP/wCKpR4n8Pg/8h3TP/AuP/4qvhmigD7nPifw9/0HdM/8DI//AIqmnxN4eJ/5DumY/wCvyP8A+Kr4aooA+5x4o8PD/mO6Z/4Fx/8AxVL/AMJR4e/6Dumf+Bkf/wAVXwvRQB90f8JR4e/6Dumf+Bkf/wAVR/wlHh7/AKDumf8AgZH/APFV8L0UAfc//CUeHv8AoPaZ/wCBkf8A8VR/wlHh7/oPaZ/4GR//ABVfDFFAH3R/wlHh7/oO6Z/4GR//ABVH/CUeHv8AoO6Z/wCBkf8A8VXwvRQB90f8JR4e/wCg7pn/AIGR/wDxVH/CUeHv+g7pn/gZH/8AFV8L0UAfc/8AwlHh7/oO6Z/4Fx//ABVH/CUeHv8AoO6Z/wCBcf8A8VXwxRQB90f8JR4e/wCg7pn/AIGR/wDxVIfE/h//AKDumf8AgZH/APFV8MUUAfc//CT+Hv8AoO6X/wCBkf8A8VQPE/h7/oO6Z/4GR/8AxVfDFFAH3MfFHh/trumf+Bkf/wAVUMninQ8ca5ph+l5H/wDFV8P0UAfbw8T6H/0HNM/8DI//AIqnjxToOR/xPNM/8DI//iq+HqKAPuP/AISnw/31vTP/AAMj/wDiqU+JvD55/t3S/wDwMj/+Kr4booA+4T4l8Pn/AJjumf8AgZH/APFUx/EXh9hj+3NL/wDAyP8A+Kr4hooA+0pNb0DPGuaZ/wCBcf8A8VUR1/QVz/xO9MOfS7j/APiq+MqKAPsRtf0PP/IZ03H/AF9px/49UMuuaGeBrGnD/t7T/wCKr5BooA+s31vRscaxp/8A4Ep/8VVdtc0f/oK6ef8At5T/ABr5UooA+ppNa0dhj+1bD8LlP8aqyavpQ6arYke1wn+NfMdFAH0o+r6UemqWX/gQv+NULjVNLYZGo2ZI/wCm68/rXz1RQB7vJqumsSDf2v185f8AGsXV7qwlgdEvbZsqQMSqf615FRQB2cF7CBhpEBH+2KWW5gII8+LHUHeK4uigDp5Z4snEqH/gQqnLMjZw6/8AfQrEooAKKKKACiiigAooooAKKKKACiiigAooooAKKKKACiiigAooooAKKKKACiiigAooooAKKKKACiiigAooooAKKKKACiiigAooooAKKKKACiiigAooooAKKKKACiiigAooooAKKKKACiiigAooooAKKKKACiiigAooooAKKKKACiiigAooooAKKKKACiiigAooooAKKKKACiiigAooooAKKKKACiiigAooooAKKKKACiiigAooooAKKKKACiiigAooooAKKKKACiiigAooooAKKKKACiiigAooooAKKKKACiiigAooooAKKKKACiiigAooooAKKKKACiiigAooooAKKKKACiiigAooooAKKKKACiiigAooooAKKKKACiiigAooooAKKKKACiiigAooooAKKKKACiiigAooooAKKKKACiiigAooooAKKKKACiiigAooooAKKKKACiiigAooooAKKKKACiiigAooooAKKKKACiiigAooooAKKKKACiiigAooooAKKKKACiiigAooooAKKKKACiiigAooooAKKKKACiiigAooooAKKKKACiiigAooooAKKKKACiiigAooooAKKKKACiiigAooooAKKKKACiiigAooooAKKKKACiiigAooooAKKKKACiiigAooooAKKKKACiiigAooooAKKKKACiiigAooooAKKKKACiiigAooooAKKKKACiiigAooooAKKKKACiiigAooooAKKKKACiiigAooooAKKKKACiiigAooooAKKKKACiiigAooooAKKKKACiiigAooooAKKKKACiiigAooooAKKKKACiiigAooooAKKKKACiiigAooooAKKKKAP//Z;" vertex="1" parent="1">
          <mxGeometry x="100" y="400" width="41" height="49.24" as="geometry" />
        </mxCell>
        <mxCell id="IHmItEdDnRHm8X9nTmPO-20" style="edgeStyle=orthogonalEdgeStyle;rounded=0;orthogonalLoop=1;jettySize=auto;html=1;exitX=1;exitY=0.5;exitDx=0;exitDy=0;entryX=0;entryY=0.5;entryDx=0;entryDy=0;" edge="1" parent="1" source="IHmItEdDnRHm8X9nTmPO-7" target="IHmItEdDnRHm8X9nTmPO-2">
          <mxGeometry relative="1" as="geometry" />
        </mxCell>
        <mxCell id="IHmItEdDnRHm8X9nTmPO-7" value="cross-attention" style="rounded=1;whiteSpace=wrap;html=1;" vertex="1" parent="1">
          <mxGeometry x="220" y="465" width="110" height="50" as="geometry" />
        </mxCell>
        <mxCell id="IHmItEdDnRHm8X9nTmPO-14" style="edgeStyle=orthogonalEdgeStyle;rounded=0;orthogonalLoop=1;jettySize=auto;html=1;exitX=1;exitY=0.5;exitDx=0;exitDy=0;entryX=0.5;entryY=1;entryDx=0;entryDy=0;" edge="1" parent="1" source="IHmItEdDnRHm8X9nTmPO-9" target="IHmItEdDnRHm8X9nTmPO-7">
          <mxGeometry relative="1" as="geometry" />
        </mxCell>
        <mxCell id="IHmItEdDnRHm8X9nTmPO-9" value="Text Embeding" style="rounded=0;whiteSpace=wrap;html=1;" vertex="1" parent="1">
          <mxGeometry x="170" y="530" width="70" height="40" as="geometry" />
        </mxCell>
        <mxCell id="IHmItEdDnRHm8X9nTmPO-17" style="edgeStyle=orthogonalEdgeStyle;rounded=0;orthogonalLoop=1;jettySize=auto;html=1;entryX=0;entryY=0.5;entryDx=0;entryDy=0;" edge="1" parent="1" source="IHmItEdDnRHm8X9nTmPO-16" target="IHmItEdDnRHm8X9nTmPO-9">
          <mxGeometry relative="1" as="geometry" />
        </mxCell>
        <mxCell id="IHmItEdDnRHm8X9nTmPO-16" value="medical&lt;div&gt;report&lt;/div&gt;" style="text;html=1;align=center;verticalAlign=middle;resizable=0;points=[];autosize=1;strokeColor=none;fillColor=none;" vertex="1" parent="1">
          <mxGeometry x="81" y="530" width="60" height="40" as="geometry" />
        </mxCell>
        <mxCell id="IHmItEdDnRHm8X9nTmPO-28" style="edgeStyle=orthogonalEdgeStyle;rounded=0;orthogonalLoop=1;jettySize=auto;html=1;exitX=0.5;exitY=1;exitDx=0;exitDy=0;entryX=1;entryY=0.5;entryDx=0;entryDy=0;" edge="1" parent="1" source="IHmItEdDnRHm8X9nTmPO-22" target="IHmItEdDnRHm8X9nTmPO-27">
          <mxGeometry relative="1" as="geometry" />
        </mxCell>
        <mxCell id="IHmItEdDnRHm8X9nTmPO-39" style="edgeStyle=orthogonalEdgeStyle;rounded=0;orthogonalLoop=1;jettySize=auto;html=1;exitX=1;exitY=0.5;exitDx=0;exitDy=0;" edge="1" parent="1" source="IHmItEdDnRHm8X9nTmPO-22" target="IHmItEdDnRHm8X9nTmPO-24">
          <mxGeometry relative="1" as="geometry" />
        </mxCell>
        <mxCell id="IHmItEdDnRHm8X9nTmPO-22" value="&lt;font style=&quot;font-size: 8px;&quot;&gt;融合后数据向量&lt;/font&gt;" style="rhombus;whiteSpace=wrap;html=1;" vertex="1" parent="1">
          <mxGeometry x="470" y="450" width="80" height="80" as="geometry" />
        </mxCell>
        <mxCell id="IHmItEdDnRHm8X9nTmPO-24" value="LLM 生成 医学报告" style="rounded=1;whiteSpace=wrap;html=1;" vertex="1" parent="1">
          <mxGeometry x="580" y="460" width="120" height="60" as="geometry" />
        </mxCell>
        <mxCell id="IHmItEdDnRHm8X9nTmPO-26" style="edgeStyle=orthogonalEdgeStyle;rounded=0;orthogonalLoop=1;jettySize=auto;html=1;exitX=1;exitY=0.5;exitDx=0;exitDy=0;entryX=-0.032;entryY=0.508;entryDx=0;entryDy=0;entryPerimeter=0;" edge="1" parent="1" source="IHmItEdDnRHm8X9nTmPO-2" target="IHmItEdDnRHm8X9nTmPO-22">
          <mxGeometry relative="1" as="geometry" />
        </mxCell>
        <mxCell id="IHmItEdDnRHm8X9nTmPO-36" style="edgeStyle=orthogonalEdgeStyle;rounded=0;orthogonalLoop=1;jettySize=auto;html=1;exitX=0.5;exitY=1;exitDx=0;exitDy=0;" edge="1" parent="1" source="IHmItEdDnRHm8X9nTmPO-27">
          <mxGeometry relative="1" as="geometry">
            <mxPoint x="40" y="400" as="targetPoint" />
          </mxGeometry>
        </mxCell>
        <mxCell id="IHmItEdDnRHm8X9nTmPO-27" value="自适应&lt;div&gt;语义相似矩阵匹配&lt;/div&gt;" style="rounded=1;whiteSpace=wrap;html=1;fillColor=#f8cecc;strokeColor=#b85450;" vertex="1" parent="1">
          <mxGeometry x="294" y="600" width="120" height="80" as="geometry" />
        </mxCell>
        <mxCell id="IHmItEdDnRHm8X9nTmPO-29" style="edgeStyle=orthogonalEdgeStyle;rounded=0;orthogonalLoop=1;jettySize=auto;html=1;exitX=0.5;exitY=1;exitDx=0;exitDy=0;entryX=-0.008;entryY=0.583;entryDx=0;entryDy=0;entryPerimeter=0;" edge="1" parent="1" source="IHmItEdDnRHm8X9nTmPO-9" target="IHmItEdDnRHm8X9nTmPO-27">
          <mxGeometry relative="1" as="geometry" />
        </mxCell>
        <mxCell id="IHmItEdDnRHm8X9nTmPO-35" style="edgeStyle=orthogonalEdgeStyle;rounded=0;orthogonalLoop=1;jettySize=auto;html=1;exitX=0.5;exitY=1;exitDx=0;exitDy=0;entryX=0.75;entryY=0;entryDx=0;entryDy=0;" edge="1" parent="1" source="IHmItEdDnRHm8X9nTmPO-32" target="IHmItEdDnRHm8X9nTmPO-7">
          <mxGeometry relative="1" as="geometry" />
        </mxCell>
        <mxCell id="IHmItEdDnRHm8X9nTmPO-32" value="门控机制" style="rounded=1;whiteSpace=wrap;html=1;fillColor=#d5e8d4;strokeColor=#82b366;" vertex="1" parent="1">
          <mxGeometry x="290" y="340" width="120" height="60" as="geometry" />
        </mxCell>
        <mxCell id="IHmItEdDnRHm8X9nTmPO-37" value="weights" style="ellipse;whiteSpace=wrap;html=1;" vertex="1" parent="1">
          <mxGeometry x="-10" y="330" width="100" height="70" as="geometry" />
        </mxCell>
        <mxCell id="IHmItEdDnRHm8X9nTmPO-38" style="edgeStyle=orthogonalEdgeStyle;rounded=0;orthogonalLoop=1;jettySize=auto;html=1;exitX=1;exitY=0.5;exitDx=0;exitDy=0;entryX=-0.007;entryY=0.411;entryDx=0;entryDy=0;entryPerimeter=0;" edge="1" parent="1" source="IHmItEdDnRHm8X9nTmPO-37" target="IHmItEdDnRHm8X9nTmPO-32">
          <mxGeometry relative="1" as="geometry" />
        </mxCell>
      </root>
    </mxGraphModel>
  </diagram>
</mxfile>
